# xmcd
#
# Track frame offsets:
#	150
#	17944
#	33525
#	52330
#	70640
#	86825
#	105330
#	121490
#	138028
#	152561
#
# Disc length: 2257 seconds
#
# Revision: 0
# Processed by: cddbd v1.4PL0 Copyright (c) Steve Scherf et al.
# Submitted via: dBpowerAMP V4.0
#
DISCID=8108cf0a
DTITLE=Satte - Un hombre de verdad
DYEAR=1900
DGENRE=
TTITLE0=Un hombre de verdad
TTITLE1=Caramelo
TTITLE2=Este amor no se toca
TTITLE3=Estamos locos de amor
TTITLE4=Buru buru bum
TTITLE5=No tengas miedo de mi
TTITLE6=La que se ha montao
TTITLE7=Yo soy tu woman
TTITLE8=Un dia mas
TTITLE9=La trampa
EXTD=
EXTT0=
EXTT1=
EXTT2=
EXTT3=
EXTT4=
EXTT5=
EXTT6=
EXTT7=
EXTT8=
EXTT9=
PLAYORDER=
